<svg width="68" height="25" viewBox="0 0 68 25" fill="none" xmlns="http://www.w3.org/2000/svg">
<g clip-path="url(#clip0_48_3)">
<path d="M52.3249 0H24.3947V3.87256H52.3249V0Z" fill="#3CC78C"/>
<path fill-rule="evenodd" clip-rule="evenodd" d="M16.9702 12.3218H22.2734V20.9285C19.826 23.6402 16.7935 24.9956 12.4625 24.9956C8.83867 24.9956 5.39866 23.3471 3.17043 20.9285C0.942202 18.5099 0 15.3142 0 12.3922C0 9.47016 1.06683 6.12744 3.57347 3.69653C6.08012 1.26562 8.93589 0 12.4784 0C16.021 0 19.0968 1.15737 22.2734 3.69653L18.7963 7.71871C18.4224 7.22672 16.4832 4.92871 12.7277 4.92871C11.7916 4.92236 10.8634 5.09982 9.99616 5.45094C9.12896 5.80206 8.33978 6.31995 7.67373 6.97501C6.23745 8.38937 5.34386 10.0783 5.34386 12.3922C5.34386 14.706 6.23833 16.6036 7.56943 17.8727C8.90054 19.1419 10.7973 20.0519 12.3193 20.0519C14.3469 20.0519 15.8141 19.6902 16.9702 19.0107V12.3218Z" fill="#2B2556"/>
<path d="M29.6979 5.98486H24.3947V24.9956H29.6979V5.98486Z" fill="#2B2656"/>
<path fill-rule="evenodd" clip-rule="evenodd" d="M59.7494 9.8574V17.9546C59.7494 17.9546 60.0146 20.3943 62.401 20.4189C63.573 20.4312 64.3455 19.6532 64.6434 19.2466C64.8758 19.6532 67.4992 21.7602 67.4992 21.7602C66.1026 23.5205 63.6702 24.9076 61.1954 24.9956C59.2712 25.0642 57.6962 24.3795 56.388 23.1411C55.0799 21.9028 54.425 20.22 54.4462 17.9546V0H59.7494V5.98485H64.3455V9.8574H59.7494Z" fill="#2B2656"/>
<path fill-rule="evenodd" clip-rule="evenodd" d="M39.5619 24.9956L32.0313 5.98486H37.8295L42.2842 17.9546L47.0217 5.98486H52.537L45.0065 24.9956H39.5619Z" fill="#2B2656"/>
</g>
<defs>
<clipPath id="clip0_48_3">
<rect width="67.5" height="25" fill="white"/>
</clipPath>
</defs>
</svg>
